<?xml version="1.0" encoding="utf-8"?>
<!-- Generator: Adobe Illustrator 16.0.0, SVG Export Plug-In . SVG Version: 6.00 Build 0)  -->
<!DOCTYPE svg PUBLIC "-//W3C//DTD SVG 1.1//EN" "http://www.w3.org/Graphics/SVG/1.1/DTD/svg11.dtd">
<svg version="1.1" id="Layer_2" xmlns="http://www.w3.org/2000/svg" xmlns:xlink="http://www.w3.org/1999/xlink" x="0px" y="0px"
	 width="5350.93px" height="1385.723px" viewBox="0 0 5350.93 1385.723" enable-background="new 0 0 5350.93 1385.723"
	 xml:space="preserve">
<g id="Layer_3">
	<path fill="#4E9D2D" d="M587.561,1329.422c-1589.982-742.74,623.774-1818.271,2048.165-1006.398
		C1220.982-276.634-563.529,644.558,587.561,1329.422z"/>
</g>
<g id="open__x28_shadow_x29_">
	<g>
		<path stroke="#000000" stroke-width="3" d="M705.784,1109.649c-39.981-0.695-75.396-8.982-106.22-24.883
			c-31.161-15.561-56.407-35.605-75.717-60.172c-39.64-51.869-59.46-105.811-59.46-161.838
			c1.357-85.401,33.329-157.841,95.877-217.316c60.156-60.156,135.347-91.111,225.588-92.843c46.142,0,85.287,7.951,117.428,23.852
			c31.427,16.256,56.729,36.66,75.868,61.211c19.483,24.906,33.838,51.525,43.067,79.879c7.518,29.05,11.286,57.049,11.286,84.026
			c0,76.412-27.187,145.744-81.537,207.994C897.251,1073.874,815.188,1107.221,705.784,1109.649z M723.532,1014.514
			c3.579,0.695,11.301-0.703,23.132-4.166c11.116-2.768,22.966-10.93,35.531-24.49c6.448-7.992,12.906-17.539,19.369-28.654
			c6.822-10.762,12.379-24.303,16.692-40.637c10.401-31.262,17.033-76.057,19.913-134.408c2.752-37.866-0.112-69.462-8.607-94.821
			c-8.971-25.695-24.041-38.903-45.218-39.602c-20.798,0.699-38.921,8.159-54.35,22.401c-15.433,14.243-28.524,33.008-39.285,56.276
			c-20.817,50.018-31.214,98.474-31.214,145.349c0,42.029,4.839,76.072,14.525,102.115
			C683.703,1000.963,700.207,1014.514,723.532,1014.514z"/>
		<path stroke="#000000" stroke-width="3.0211" d="M1346.926,620.729c24.19-20.375,50.731-37.774,79.627-52.19
			c28.21-13.358,57.445-20.567,87.688-21.63c97.975,1.063,147.302,72.436,147.987,214.159
			c-2.013,110.379-31.932,195.697-89.759,255.935c-55.818,59.9-112.959,90.175-171.433,90.875
			c-51.036-0.7-95.317-19.197-132.885-55.526l-57.921,309.3h-192.514l150.774-801.387h189.061L1346.926,620.729z M1413.156,663.474
			c-11.797,0-23.769,4.876-35.894,14.627c-12.482,10.111-25.288,27-38.421,50.677c-26.295,45.628-43.635,121.549-52.058,227.777
			c14.455,31.348,37.984,47.018,70.577,47.018c12.105,0,25.043-6.096,38.818-18.294c12.428-12.175,23.848-28.895,34.283-50.139
			c22.843-43.523,34.606-98.56,35.286-165.101C1466.433,699.01,1448.902,663.474,1413.156,663.474z"/>
		<path stroke="#000000" stroke-width="3" d="M2193.651,1024.743c-36.135,21.744-77.958,41.068-125.472,57.99
			c-47.176,17.254-96.874,26.221-149.064,26.916c-33.966-0.695-62.115-8.982-84.421-24.883
			c-23.321-13.83-42.125-32.158-56.441-54.992c-7.011-12.098-12.832-23.855-17.485-35.273c-4.673-11.758-8.835-23.32-12.491-34.738
			c-2.675-11.418-4.67-22.473-5.992-33.193c-1.337-9.686-1.994-18.838-1.994-27.488c2.674-62.25,15.031-115.658,37.073-160.272
			c10.343-22.815,22.703-43.049,37.078-60.7c13.678-17.632,28.373-33.178,44.085-46.667c32.068-27.658,66.787-47.892,104.206-60.681
			c36.397-12.098,71.287-18.162,104.711-18.162c52.09,0,95.517,10.719,130.256,32.157c35.061,21.799,52.921,57.953,53.601,108.443
			c-0.68,29.053-9.871,54.125-27.6,75.229c-18.088,22.834-42.504,41.688-73.29,56.553c-63.583,31.129-134.852,46.01-213.812,44.619
			c-0.699,5.535-0.699,14.369,0,26.482c0,12.816,2.505,25.98,7.538,39.471c4.673,12.816,13.206,23.723,25.602,32.705
			c12.396,10.746,30.144,16.111,53.241,16.111c24.095,0,46.705-4.67,67.805-14.016c20.743-8.309,41.994-18.521,63.773-30.65
			L2193.651,1024.743z M2053.183,644.118c-29.487,2.791-52.94,17.014-70.349,42.712c-17.106,25.359-29.675,56.612-37.698,93.768
			c102.826,2.768,155.935-25.02,159.29-83.351c1.376-16.314-2.636-29.502-12.059-39.583
			C2082.646,648.64,2069.59,644.118,2053.183,644.118z"/>
		<path stroke="#000000" stroke-width="3.0236" d="M2534.052,656.914l2.014,2.107c29.621-36.722,62.261-64.614,97.935-83.678
			c35.339-18.001,68.833-27.019,100.471-27.019c76.382,0,114.588,38.316,114.588,114.935c0.686,24.74-1.994,54.342-8.071,88.824
			l-62.085,344.308h-186.291l60.079-336.105c1.325-9.399,2.01-18.284,2.01-26.66c-2.696-22.294-7.899-36.59-15.644-42.858
			c-8.094-5.92-15.651-8.885-22.71-8.885c-17.163,0-31.978,5.412-44.431,16.198c-13.144,10.826-24.401,25.102-33.82,42.877
			c-18.191,37.973-30.625,76.841-37.349,116.567l-42.417,238.866h-186.272l96.42-534.701h184.752L2534.052,656.914z"/>
	</g>
</g>
<g id="open__x28_outline_x29_">
	<g>
		<path fill="#FFFFFF" stroke="#000000" stroke-width="23" d="M660.552,1058.135c-39.977-0.705-75.396-8.992-106.216-24.893
			c-31.164-15.561-56.406-35.604-75.721-60.172c-39.635-51.867-59.457-105.809-59.457-161.836
			c1.358-85.403,33.329-157.842,95.877-217.317c60.156-60.155,135.343-91.111,225.588-92.843c46.137,0,85.287,7.951,117.429,23.852
			c31.423,16.255,56.728,36.664,75.867,61.21c19.48,24.906,33.834,51.525,43.068,79.879c7.518,29.049,11.286,57.048,11.286,84.026
			c0,76.411-27.186,145.743-81.541,207.995C852.022,1022.352,769.956,1055.7,660.552,1058.135z M678.3,962.993
			c3.58,0.695,11.305-0.697,23.136-4.168c11.116-2.766,22.966-10.93,35.531-24.488c6.443-7.992,12.906-17.539,19.369-28.656
			c6.817-10.76,12.376-24.303,16.693-40.637c10.397-31.26,17.029-76.061,19.912-134.406c2.752-37.867-0.112-69.46-8.611-94.818
			c-8.967-25.699-24.037-38.906-45.213-39.602c-20.802,0.696-38.925,8.155-54.354,22.397c-15.43,14.243-28.524,33.008-39.281,56.276
			c-20.817,50.022-31.218,98.478-31.218,145.35c0,42.027,4.843,76.07,14.525,102.113C638.475,949.442,654.978,962.993,678.3,962.993
			z"/>
		<path fill="#FFFFFF" stroke="#000000" stroke-width="23" d="M1303.895,574.38c24.022-20.234,50.381-37.511,79.071-51.828
			c28.015-13.264,57.049-20.422,87.08-21.478c97.288,1.056,146.274,71.929,146.95,212.663
			c-1.998,109.61-31.709,194.331-89.132,254.147c-55.425,59.482-112.172,89.545-170.237,90.25
			c-50.679-0.705-94.651-19.072-131.953-55.148l-57.52,307.148H976.988l149.721-795.8h187.737L1303.895,574.38z M1369.667,616.826
			c-11.719,0-23.608,4.843-35.644,14.525c-12.4,10.042-25.116,26.812-38.152,50.323c-26.112,45.31-43.331,120.706-51.694,226.186
			c14.354,31.131,37.715,46.689,70.08,46.689c12.021,0,24.872-6.051,38.547-18.164c12.341-12.09,23.685-28.688,34.043-49.791
			c22.685-43.219,34.364-97.875,35.044-163.943C1422.567,652.114,1405.159,616.826,1369.667,616.826z"/>
		<path fill="#FFFFFF" stroke="#000000" stroke-width="23" d="M2148.423,973.219c-36.135,21.744-77.963,41.07-125.476,57.99
			c-47.173,17.254-96.874,26.221-149.06,26.926c-33.97-0.705-62.116-8.992-84.421-24.893
			c-23.326-13.828-42.125-32.156-56.445-54.992c-7.008-12.098-12.829-23.854-17.482-35.271c-4.672-11.75-8.835-23.322-12.491-34.74
			c-2.675-11.418-4.673-22.471-5.991-33.191c-1.338-9.688-1.998-18.84-1.998-27.488c2.674-62.248,15.035-115.658,37.078-160.273
			c10.342-22.816,22.703-43.05,37.077-60.701c13.678-17.633,28.373-33.178,44.085-46.667
			c32.063-27.655,66.788-47.888,104.201-60.681c36.402-12.098,71.292-18.163,104.713-18.163c52.094,0,95.518,10.718,130.26,32.161
			c35.06,21.796,52.92,57.949,53.597,108.438c-0.676,29.054-9.871,54.13-27.6,75.229c-18.085,22.835-42.501,41.692-73.286,56.558
			c-63.584,31.121-134.856,46.006-213.815,44.613c-0.696,5.535-0.696,14.371,0,26.484c0,12.816,2.508,25.98,7.537,39.471
			c4.672,12.816,13.206,23.723,25.602,32.705c12.399,10.746,30.147,16.109,53.245,16.109c24.095,0,46.702-4.67,67.801-14.016
			c20.744-8.309,41.998-18.521,63.773-30.648L2148.423,973.219z M2007.951,592.6c-29.483,2.787-52.94,17.01-70.349,42.709
			c-17.106,25.359-29.672,56.611-37.7,93.766c102.831,2.768,155.94-25.019,159.294-83.35c1.373-16.315-2.64-29.502-12.059-39.582
			C2037.418,597.118,2024.361,592.6,2007.951,592.6z"/>
		<path fill="#FFFFFF" stroke="#000000" stroke-width="23" d="M2491.281,608.821l1.994,2.09
			c29.39-36.436,61.775-64.113,97.175-83.028c35.063-17.86,68.296-26.809,99.68-26.809c75.794,0,113.702,38.017,113.702,114.039
			c0.681,24.547-1.979,53.917-8.008,88.131l-61.609,341.625H2549.38l59.606-333.485c1.322-9.327,2.003-18.143,2.003-26.453
			c-2.675-22.116-7.839-36.304-15.526-42.52c-8.027-5.878-15.525-8.82-22.533-8.82c-17.029,0-31.725,5.373-44.085,16.071
			c-13.036,10.741-24.211,24.907-33.552,42.542c-18.05,37.676-30.392,76.242-37.058,115.658l-42.091,237.006h-184.82l95.672-530.534
			h183.312L2491.281,608.821z"/>
	</g>
</g>
<g id="NMS">
	<g>
		<path d="M3604.027,1117.215h-145.203c-56.275-70.127-114.886-144.414-175.83-222.844
			c-61.307-78.406-110.362-149.226-147.196-212.454h-2.018v435.298h-169.784V374.471h157.254
			c55.579,68.462,114.188,143.146,175.837,224.043c61.284,80.579,106.327,147.838,135.138,201.756h2.018V374.471h169.785V1117.215z"
			/>
		<path d="M4565.229,1117.215h-223.965V597.418h-2.072c-55.277,188.646-111.893,361.918-169.838,519.797h-135.856
			c-58.633-157.879-116.246-331.15-172.838-519.797h-1.994v519.797h-169.784V374.471h295.483
			c49.395,136.588,98.474,289.061,147.229,457.45h2.017c47.062-168.389,94.617-320.862,142.698-457.45h288.921V1117.215z"/>
		<path d="M5057.715,527.319c-29.429-18.371-64.693-27.562-105.801-27.562c-48.422,1.391-72.61,16.616-72.61,45.685
			c0,9.346,4.104,19.047,12.321,29.069c7.136,10.381,17.309,20.933,30.535,31.67c26.437,21.1,58.577,48.437,96.44,82.008
			c45.461,43.258,76.381,81.503,92.769,114.719c15.73,33.928,23.253,70.105,22.571,108.5c0,16.271-3.523,36.34-10.528,60.225
			c-7.366,24.908-21.426,49.473-42.145,73.707c-19.069,23.887-45.97,43.613-80.748,59.174
			c-35.798,16.621-80.764,25.262-134.951,25.959c-42.463,0-83.101-5.689-121.897-17.045
			c-39.788-10.668-74.396-27.543-103.823-50.609l65.729-122.926c15.716,12.152,33.766,23.416,54.188,33.812
			c20.725,12.152,43.799,18.221,69.238,18.221c22.417,0,42.816-6.4,61.207-19.219c18.723-11.076,28.432-30.479,29.104-58.191
			c0-14.889-3.843-29.428-11.525-43.637c-7.366-12.809-17.223-25.285-29.582-37.414c-26.074-23.889-54.498-48.305-85.249-73.25
			c-39.825-32.555-71.024-63.039-93.611-91.447c-22.966-27.696-34.445-63.549-34.445-107.537
			c0.681-60.253,26.583-108.574,77.734-144.956c48.064-36.022,107.726-54.37,178.983-55.07c47.362,0.7,88.284,6.729,122.723,18.089
			c32.706,11.379,55.727,21.891,69.029,31.535L5057.715,527.319z"/>
	</g>
</g>
<g>
	<g>
		<text transform="matrix(1 0 0 1 5130.6123 697.4771)" font-family="'Myriad-Roman'" font-size="432">®</text>
	</g>
</g>
</svg>
